<?xml version="1.0" encoding="utf-8"?>
<!-- Generator: Adobe Illustrator 19.2.0, SVG Export Plug-In . SVG Version: 6.00 Build 0)  -->
<svg version="1.1" id="Layer_1" xmlns="http://www.w3.org/2000/svg" xmlns:xlink="http://www.w3.org/1999/xlink" x="0px" y="0px"
	 viewBox="0 0 960 960" style="enable-background:new 0 0 960 960;" xml:space="preserve">
<style type="text/css">
	.st0{fill:#333333;}
	.st1{fill:#0F0F0F;}
	.st2{fill:#AAAAAA;}
	.st3{stroke:#FFFFFF;stroke-width:29.8029;stroke-miterlimit:10;}
	.st4{fill:#FFFFFF;}
	.st5{fill:#CC333F;}
</style>
<g id="Layer_1_1_">
	<g>
		<path d="M744.8,338.3h-81.3v-41c0-7.1,5.7-12.8,12.8-12.8h55.8c7.1,0,12.8,5.7,12.8,12.8L744.8,338.3L744.8,338.3z"/>
		<path class="st0" d="M761,675.5H199c-14.1,0-25.5-11.4-25.5-25.5V338.8c0-14.1,11.4-25.5,25.5-25.5h562
			c14.1,0,25.5,11.4,25.5,25.5V650C786.6,664.1,775.1,675.5,761,675.5z"/>
		<path class="st1" d="M761,632.9H199c-14.1,0-25.5-11.4-25.5-25.5V650c0,14.1,11.4,25.5,25.5,25.5h562c14.1,0,25.5-11.4,25.5-25.5
			v-42.6C786.6,621.5,775.1,632.9,761,632.9z"/>
		<rect x="173.4" y="398.7" class="st2" width="613.1" height="202.1"/>
		<circle class="st3" cx="480" cy="495.3" r="110.2"/>
		<circle class="st0" cx="480" cy="495.3" r="63"/>
		<circle class="st4" cx="440.6" cy="455.9" r="23.6"/>
		<circle class="st5" cx="234.3" cy="356.5" r="18.4"/>
		<rect x="675.5" y="342.8" class="st2" width="69.4" height="27.6"/>
	</g>
</g>
</svg>
